<svg id="Layer_1" data-name="Layer 1" xmlns="http://www.w3.org/2000/svg" xmlns:xlink="http://www.w3.org/1999/xlink" viewBox="0 0 32 32"><defs><style>.cls-1{fill:url(#linear-gradient);}</style><linearGradient id="linear-gradient" x1="2.26" y1="16" x2="29.74" y2="16" gradientUnits="userSpaceOnUse"><stop offset="0" stop-color="#ee8622"/><stop offset="1" stop-color="#f6ed5c"/></linearGradient></defs><title>Brand Icon</title><path class="cls-1" d="M16.91,22l-.19,0A8.44,8.44,0,0,1,15,21.37a9.16,9.16,0,0,1-1.78-1.1c-.24-.19-.48-.39-.71-.61h0a1.17,1.17,0,0,1,0-1.67,3.17,3.17,0,0,1,2.24-.93,3.21,3.21,0,0,1,1.63.45l.37.21a5.23,5.23,0,0,0,1.49.5,7.21,7.21,0,0,0,1.35.12,5.69,5.69,0,0,0,1.18-.12,5.54,5.54,0,0,0,1.13-.37,5.41,5.41,0,0,0,1.79-1.33,6.23,6.23,0,0,0,1.17-2,6.74,6.74,0,0,0,.42-2.38v-.06a6.55,6.55,0,0,0-.42-2.36,6.21,6.21,0,0,0-1.18-1.95A5.26,5.26,0,0,0,21.83,6.5,5.35,5.35,0,0,0,19.55,6a6,6,0,0,0-2.67.59l-.18.09a3.39,3.39,0,0,1-4.14-.76,1.14,1.14,0,0,1-.29-.77,1.18,1.18,0,0,1,.43-.91c.18-.14.37-.29.56-.42A8.53,8.53,0,0,1,15,2.89,10.82,10.82,0,0,1,17,2.27a13,13,0,0,1,2.51-.22,10.5,10.5,0,0,1,4.14.79A9.83,9.83,0,0,1,26.89,5a10.14,10.14,0,0,1,2.85,7.15v.05A10.4,10.4,0,0,1,29,16.18a9.73,9.73,0,0,1-5.29,5.35,10.24,10.24,0,0,1-2.58.69v1.27A6,6,0,0,1,17.53,29h-.05a11.81,11.81,0,0,1-4.82.92,11.24,11.24,0,0,1-4.22-.76,9.72,9.72,0,0,1-3.28-2.12A9.6,9.6,0,0,1,3,23.85a10.7,10.7,0,0,1-.76-4.08v-.05A10.24,10.24,0,0,1,5.2,12.49a10.22,10.22,0,0,1,3.28-2.2,10.46,10.46,0,0,1,4.16-.81,13.7,13.7,0,0,1,2.41.19,10.84,10.84,0,0,1,2,.52,9.54,9.54,0,0,1,1.76.85,14.29,14.29,0,0,1,1.45,1,.19.19,0,0,1,0,.25l-1.66,2a1.6,1.6,0,0,1-1.23.58,1.63,1.63,0,0,1-.87-.26A7.06,7.06,0,0,0,15.36,14a7.16,7.16,0,0,0-1.31-.39,7.54,7.54,0,0,0-1.56-.14,5.08,5.08,0,0,0-2.22.49,5.92,5.92,0,0,0-1.8,1.34,6,6,0,0,0-1.22,2,6.6,6.6,0,0,0-.44,2.4v.05a7,7,0,0,0,.44,2.51,6,6,0,0,0,1.24,2,5.9,5.9,0,0,0,1.9,1.32,6.07,6.07,0,0,0,2.42.46,6.9,6.9,0,0,0,4-1.14.18.18,0,0,0,.08-.15V22Z"/></svg>