<svg id="Layer_1" data-name="Layer 1" xmlns="http://www.w3.org/2000/svg" xmlns:xlink="http://www.w3.org/1999/xlink" viewBox="0 0 283.46 283.46"><defs><style>.cls-1{fill:url(#linear-gradient);}</style><linearGradient id="linear-gradient" x1="41.64" y1="141.73" x2="241.83" y2="141.73" gradientUnits="userSpaceOnUse"><stop offset="0" stop-color="#ee8622"/><stop offset="1" stop-color="#f6ed5c"/></linearGradient></defs><title>Brand Logo</title><path class="cls-1" d="M148.33,185.62c-.46-.11-.92-.21-1.37-.33a65.14,65.14,0,0,1-12.47-4.43,67.42,67.42,0,0,1-12.94-8.05q-2.61-2.07-5.15-4.39l-.06,0a8.4,8.4,0,0,1-.31-12.12,22.9,22.9,0,0,1,16.32-6.79,23.19,23.19,0,0,1,11.83,3.25c.92.55,1.83,1.06,2.75,1.55a37.31,37.31,0,0,0,10.81,3.64,54.88,54.88,0,0,0,9.88.84,42.46,42.46,0,0,0,8.55-.84,37.13,37.13,0,0,0,8.27-2.72,39.4,39.4,0,0,0,13.05-9.69A45.44,45.44,0,0,0,206,131.22,48.88,48.88,0,0,0,209,113.89v-.41A48.08,48.08,0,0,0,206,96.26a44.57,44.57,0,0,0-8.56-14.17,39.51,39.51,0,0,0-13.15-9.59A40,40,0,0,0,167.62,69a43.44,43.44,0,0,0-19.47,4.28c-.44.22-.88.44-1.32.68a24.71,24.71,0,0,1-30.19-5.55,8.58,8.58,0,0,1-2.09-5.61,8.48,8.48,0,0,1,3.15-6.62c1.31-1.06,2.67-2.09,4-3.08a65,65,0,0,1,12.43-6.93,76.48,76.48,0,0,1,15-4.49,95,95,0,0,1,18.25-1.63,76.34,76.34,0,0,1,30.17,5.81A70.86,70.86,0,0,1,221,61.81a73.8,73.8,0,0,1,15.29,23.44,74.58,74.58,0,0,1,5.5,28.64v.41a75.34,75.34,0,0,1-5.5,28.74A71.69,71.69,0,0,1,179,187v9.25a43.92,43.92,0,0,1-26.16,40.27l-.3.13q-15.35,6.69-35.12,6.7a82.36,82.36,0,0,1-30.79-5.56,70.94,70.94,0,0,1-23.89-15.45A69.56,69.56,0,0,1,47.2,198.89a77.57,77.57,0,0,1-5.56-29.66v-.41A73.69,73.69,0,0,1,87,100.13a76.39,76.39,0,0,1,30.27-5.87,105.38,105.38,0,0,1,17.61,1.34,84.32,84.32,0,0,1,14.73,3.8,68.51,68.51,0,0,1,12.77,6.19,94.61,94.61,0,0,1,10.55,7.61A1.29,1.29,0,0,1,173,115l-12.11,14.61A11.62,11.62,0,0,1,145.65,132a54,54,0,0,0-8.55-4.53,50.49,50.49,0,0,0-9.58-2.89,58.37,58.37,0,0,0-11.33-1A36.81,36.81,0,0,0,100,127.12a43.68,43.68,0,0,0-13.19,9.7A44.43,44.43,0,0,0,78,151.07a47.36,47.36,0,0,0-3.2,17.44v.41A50.74,50.74,0,0,0,78,187.19a43.36,43.36,0,0,0,9.06,14.55,41.13,41.13,0,0,0,13.8,9.6,44.18,44.18,0,0,0,17.61,3.41q17.31,0,29.31-8.33a1.29,1.29,0,0,0,.56-1.06V185.62Z"/></svg>