<svg xmlns="http://www.w3.org/2000/svg" xmlns:xlink="http://www.w3.org/1999/xlink" width="1924" height="2629" viewBox="0 0 1924 2629">
  <defs>
    <linearGradient id="linear-gradient" y1="0.5" x2="1" y2="0.5" gradientUnits="objectBoundingBox">
      <stop offset="0" stop-color="#ee8622"/>
      <stop offset="1" stop-color="#f6ed5c"/>
    </linearGradient>
  </defs>
  <g id="Menu_Background" data-name="Menu Background" transform="translate(0 -1078)">
    <rect id="Rectangle_8" data-name="Rectangle 8" width="1924" height="2629" transform="translate(0 1078)" fill="rgba(249,240,108,0.1)"/>
    <path id="Brand_Logo" data-name="Brand Logo" d="M1062.437,1432.846c-4.4-1.052-8.8-2.009-13.108-3.157A623.267,623.267,0,0,1,930.022,1387.3a645.048,645.048,0,0,1-123.8-77.019q-24.971-19.8-49.273-42h-.574a80.367,80.367,0,0,1-2.966-115.958,219.1,219.1,0,0,1,156.142-64.964,221.871,221.871,0,0,1,113.184,31.095c8.8,5.262,17.509,10.141,26.311,14.83a356.954,356.954,0,0,0,103.425,34.826,525.075,525.075,0,0,0,94.527,8.036,406.229,406.229,0,0,0,81.8-8.037,355.238,355.238,0,0,0,79.124-26.024,376.957,376.957,0,0,0,124.856-92.709A434.748,434.748,0,0,0,1614.2,912.372a467.666,467.666,0,0,0,28.7-165.805v-3.923a460.011,460.011,0,0,0-28.7-164.753,426.424,426.424,0,0,0-81.9-135.572,378.009,378.009,0,0,0-125.813-91.753,382.7,382.7,0,0,0-159.491-33.486,415.612,415.612,0,0,0-186.28,40.949c-4.21,2.1-8.42,4.21-12.629,6.506a236.414,236.414,0,0,1-288.844-53.1,82.088,82.088,0,0,1-20-53.674,81.133,81.133,0,0,1,30.138-63.337c12.534-10.142,25.545-20,38.27-29.468a621.891,621.891,0,0,1,118.924-66.3A731.721,731.721,0,0,1,1070.091,55.7,908.914,908.914,0,0,1,1244.7,40.1,730.388,730.388,0,0,1,1533.35,95.688a677.951,677.951,0,0,1,224.359,152.6A706.08,706.08,0,0,1,1904,472.553a713.538,713.538,0,0,1,52.621,274.014v3.923A720.815,720.815,0,0,1,1904,1025.46a685.9,685.9,0,0,1-548.124,420.589v88.5a420.207,420.207,0,0,1-250.287,385.285l-2.87,1.244q-146.861,64.007-336.012,64.1a787.991,787.991,0,0,1-294.584-53.2,678.728,678.728,0,0,1-228.568-147.818A665.517,665.517,0,0,1,94.872,1559.807a742.152,742.152,0,0,1-53.2-283.773v-3.922A705.031,705.031,0,0,1,475.66,614.917a730.862,730.862,0,0,1,289.609-56.161,1008.241,1008.241,0,0,1,168.484,12.821,806.734,806.734,0,0,1,140.929,36.357,655.44,655.44,0,0,1,122.178,59.223A905.18,905.18,0,0,1,1297.8,739.965a12.342,12.342,0,0,1,.67,17.221L1182.6,896.968A111.175,111.175,0,0,1,1036.8,919.835a516.675,516.675,0,0,0-81.8-43.341,483.08,483.08,0,0,0-91.657-27.65,558.469,558.469,0,0,0-108.4-9.568,352.183,352.183,0,0,0-154.9,33.869,417.91,417.91,0,0,0-126.2,92.8,425.089,425.089,0,0,0-84.29,136.338,453.118,453.118,0,0,0-30.616,166.858v3.922a485.453,485.453,0,0,0,30.616,174.8,414.848,414.848,0,0,0,86.682,139.207,393.513,393.513,0,0,0,132.032,91.849,422.7,422.7,0,0,0,168.484,32.625q165.614,0,280.424-79.7a12.341,12.341,0,0,0,5.358-10.142V1432.846Z" transform="translate(-36.636 1721.496)" opacity="0.1" fill="url(#linear-gradient)"/>
  </g>
</svg>
